<svg version="1.0" xmlns="http://www.w3.org/2000/svg" width="933.3" height="933.3" viewBox="0 0 700 700"><defs><style>@media (prefers-color-scheme:dark){path{fill:#fff}}</style></defs><path d="M415.8 76.3c-3.8 3-4.9 18.9-1.7 24.8.6 1.2 16.1 17.3 34.4 35.8L498 187c37.2 37.8 132.9 134.6 137.7 139.3 2.9 2.8 5 5.3 4.7 5.6-.3.3-141.7.6-314.2.6-240.2.1-314.2.4-315.8 1.3C6.9 335.7 0 344.1 0 346.4c.1 3.5 3.5 9.9 7.8 14.2l4 4h315.7c173.6-.1 315.9.2 316.1.5.7 1.2-15.9 19.1-41.4 44.2a35451.5 35451.5 0 0 1-109.7 110.2 4018 4018 0 0 0-79.8 81.2c-3 4.4-4.5 9.3-3.9 13.1.5 3.3 10.3 13.2 13.3 13.4 6.1.3 9.4-.3 13.4-2.6 4.4-2.6 9.5-7.9 9.5-9.8 0-.6 10.3-11.5 22.9-24.2l44.8-45.3L597 460c84.8-85.7 94.6-95.7 99.1-101.3 3.7-4.6 3.9-5.3 3.9-11.6 0-5.6-.4-7.3-2.5-10.2C694.8 333.3 438.1 76 437.1 76l-10.1-.6c-7.1-.3-9.9-.1-11.2.9z"/></svg>