<?xml version="1.0" standalone="no"?>
<!DOCTYPE svg PUBLIC "-//W3C//DTD SVG 20010904//EN"
 "http://www.w3.org/TR/2001/REC-SVG-20010904/DTD/svg10.dtd">
<svg version="1.0" xmlns="http://www.w3.org/2000/svg"
 width="700.000000pt" height="700.000000pt" viewBox="0 0 700.000000 700.000000"
 preserveAspectRatio="xMidYMid meet">
<metadata>
Created by potrace 1.14, written by Peter Selinger 2001-2017
</metadata>
<g transform="translate(0.000000,700.000000) scale(0.100000,-0.100000)"
fill="#000000" stroke="none">
<path d="M4158 6237 c-38 -30 -49 -189 -17 -248 6 -12 161 -173 344 -358 183
-185 406 -410 495 -501 372 -378 1329 -1346 1377 -1393 29 -28 50 -53 47 -56
-3 -3 -1417 -6 -3142 -6 -2402 -1 -3142 -4 -3158 -13 -35 -19 -104 -103 -104
-126 1 -35 35 -99 78 -142 l40 -40 3157 0 c1736 1 3159 -2 3161 -5 7 -12 -159
-191 -414 -442 -85 -84 -193 -192 -240 -241 -48 -49 -433 -436 -857 -861 -423
-424 -783 -790 -798 -812 -30 -44 -45 -93 -39 -131 5 -33 103 -132 133 -134
61 -3 94 3 134 26 44 26 95 79 95 98 0 6 103 115 229 242 126 127 328 331 448
453 120 122 499 506 843 853 848 857 946 957 991 1013 37 46 39 53 39 116 0
56 -4 73 -25 102 -27 36 -2594 2609 -2604 2609 -3 0 -49 3 -101 6 -71 3 -99 1
-112 -9z"/>
</g>
</svg>
